<svg xmlns="http://www.w3.org/2000/svg" viewBox="0 0 32 32">
  <!-- Outer glow effect -->
  <defs>
    <filter id="glow" x="-20%" y="-20%" width="140%" height="140%">
      <feGaussianBlur in="SourceAlpha" stdDeviation="1" result="blur"/>
      <feOffset in="blur" dx="0" dy="0" result="offsetBlur"/>
      <feFlood flood-color="#4A90E2" flood-opacity="0.3"/>
      <feComposite in2="offsetBlur" operator="in"/>
      <feMerge>
        <feMergeNode/>
        <feMergeNode in="SourceGraphic"/>
      </feMerge>
    </filter>
  </defs>

  <!-- Book shadow -->
  <rect x="6" y="8" width="24" height="20" rx="2" fill="#2C3E50" opacity="0.2"/>
  
  <!-- Book base with gradient -->
  <linearGradient id="bookGradient" x1="0%" y1="0%" x2="100%" y2="100%">
    <stop offset="0%" style="stop-color:#4A90E2"/>
    <stop offset="100%" style="stop-color:#357ABD"/>
  </linearGradient>
  <rect x="4" y="6" width="24" height="20" rx="2" fill="url(#bookGradient)" filter="url(#glow)"/>
  
  <!-- Book pages with subtle texture -->
  <path d="M7 8 L25 8 L25 24 L7 24" fill="#FFFFFF" stroke="#E0E0E0"/>
  <path d="M7 12 L25 12" stroke="#F5F5F5" stroke-width="0.5"/>
  <path d="M7 16 L25 16" stroke="#F5F5F5" stroke-width="0.5"/>
  <path d="M7 20 L25 20" stroke="#F5F5F5" stroke-width="0.5"/>
  
  <!-- Digital elements with animation -->
  <path d="M12 14 L20 14" stroke="#2C3E50" stroke-width="2" stroke-linecap="round">
    <animate attributeName="stroke-dasharray" from="0,8" to="8,0" dur="3s" repeatCount="indefinite"/>
  </path>
  <path d="M12 18 L16 18" stroke="#2C3E50" stroke-width="2" stroke-linecap="round"/>
  
  <!-- Animated cursor -->
  <circle cx="22" cy="18" r="1.5" fill="#E74C3C">
    <animate attributeName="opacity" values="1;0;1" dur="1.5s" repeatCount="indefinite"/>
  </circle>
  
  <!-- Enhanced book binding -->
  <path d="M4 6 Q16 8 28 6 L28 26 Q16 24 4 26 Z" fill="url(#bookGradient)" opacity="0.4"/>
  
  <!-- Subtle highlight -->
  <path d="M4 6 Q16 7 28 6" stroke="white" stroke-width="0.5" opacity="0.3"/>
</svg>